<svg xmlns="http://www.w3.org/2000/svg" viewBox="0 0 460 620" preserveAspectRatio="xMidYMid slice" role="presentation"><defs><mask id="ym" maskUnits="userSpaceOnUse" x="-70" y="-105" width="140" height="215"><rect x="-70" y="-105" width="140" height="215" fill="#fff"/><g fill="#000"><rect x="5" y="-63" width="74" height="10" rx="5" transform="rotate(-28 0 -58)"/><rect x="-79" y="-47" width="74" height="10" rx="5" transform="rotate(28 0 -42)"/><rect x="5" y="-31" width="74" height="10" rx="5" transform="rotate(-28 0 -26)"/><rect x="-79" y="-15" width="74" height="10" rx="5" transform="rotate(28 0 -10)"/><rect x="5" y="1" width="74" height="10" rx="5" transform="rotate(-28 0 6)"/><rect x="-79" y="17" width="74" height="10" rx="5" transform="rotate(28 0 22)"/><rect x="5" y="33" width="74" height="10" rx="5" transform="rotate(-28 0 38)"/><rect x="-79" y="49" width="74" height="10" rx="5" transform="rotate(28 0 54)"/></g></mask><g id="y"><path d="M0 92 L0 165" stroke="currentColor" stroke-width="7" stroke-linecap="round" fill="none"/><g mask="url(#ym)"><ellipse cx="0" cy="0" rx="60" ry="93" fill="currentColor"/></g></g></defs><rect width="460" height="620" fill="#14402c"/><use href="#y" color="#1c5a3c" transform="translate(120 130) rotate(-18) scale(1.5)"/><use href="#y" color="#206744" transform="translate(390 300) rotate(22) scale(1.85)"/><use href="#y" color="#1a5136" transform="translate(180 470) rotate(-34) scale(1.35)"/><use href="#y" color="#186047" opacity="0.85" transform="translate(30 330) rotate(12) scale(1.1)"/></svg>